<svg width="30" height="16" viewBox="0 0 30 16" fill="none" xmlns="http://www.w3.org/2000/svg">
<path d="M1.10012 10.6124L5.93762 15.4999C6.05382 15.617 6.19207 15.71 6.3444 15.7735C6.49672 15.8369 6.6601 15.8696 6.82512 15.8696C6.99013 15.8696 7.15352 15.8369 7.30584 15.7735C7.45816 15.71 7.59641 15.617 7.71262 15.4999C7.82978 15.3837 7.92277 15.2454 7.98623 15.0931C8.04969 14.9408 8.08237 14.7774 8.08237 14.6124C8.08237 14.4474 8.04969 14.284 7.98623 14.1317C7.92277 13.9793 7.82978 13.8411 7.71262 13.7249L3.26262 9.24987H28.7501C29.0816 9.24987 29.3996 9.11818 29.634 8.88376C29.8684 8.64934 30.0001 8.3314 30.0001 7.99987C30.0001 7.66835 29.8684 7.35041 29.634 7.11599C29.3996 6.88157 29.0816 6.74987 28.7501 6.74987H3.18762L7.71262 2.22487C7.93423 1.9924 8.05786 1.68355 8.05786 1.36237C8.05786 1.0412 7.93423 0.732345 7.71262 0.499875C7.59641 0.382714 7.45816 0.289721 7.30584 0.22626C7.15352 0.162799 6.99013 0.130127 6.82512 0.130127C6.6601 0.130127 6.49672 0.162799 6.3444 0.22626C6.19207 0.289721 6.05382 0.382714 5.93762 0.499875L1.10012 5.31238C0.397866 6.0155 0.00341797 6.96862 0.00341797 7.96238C0.00341797 8.95613 0.397866 9.90925 1.10012 10.6124V10.6124Z" fill="#374957"/>
</svg>
