<svg width="58" height="58" viewBox="0 0 58 58" fill="none" xmlns="http://www.w3.org/2000/svg">
<g filter="url(#filter0_dd_1_818)">
<rect x="3" y="2" width="52" height="52" rx="26" fill="white"/>
</g>
<g clip-path="url(#clip0_1_818)">
<path d="M22.1376 30.0092L21.3307 33.0216L18.3814 33.084C17.4999 31.4491 17 29.5787 17 27.5911C17 25.669 17.4674 23.8565 18.296 22.2605H18.2966L20.9223 22.7419L22.0726 25.3518C21.8318 26.0537 21.7006 26.8071 21.7006 27.5911C21.7007 28.4419 21.8548 29.2571 22.1376 30.0092Z" fill="#555555"/>
<path d="M39.9792 25.4253C40.1123 26.1265 40.1817 26.8506 40.1817 27.5906C40.1817 28.4205 40.0945 29.2299 39.9283 30.0107C39.364 32.6677 37.8897 34.9878 35.8473 36.6296L35.8466 36.629L32.5394 36.4602L32.0714 33.5383C33.4266 32.7435 34.4857 31.4997 35.0436 30.0107H28.8456V25.4253H35.134H39.9792Z" fill="#555555"/>
<path d="M35.8466 36.6293L35.8473 36.63C33.8609 38.2266 31.3376 39.1819 28.5908 39.1819C24.1767 39.1819 20.339 36.7147 18.3813 33.0839L22.1375 30.0092C23.1164 32.6215 25.6364 34.4812 28.5908 34.4812C29.8607 34.4812 31.0504 34.1379 32.0713 33.5386L35.8466 36.6293Z" fill="#555555"/>
<path d="M35.9894 18.6684L32.2344 21.7426C31.1779 21.0822 29.9289 20.7007 28.5909 20.7007C25.5696 20.7007 23.0024 22.6456 22.0726 25.3517L18.2967 22.2604H18.296C20.2251 18.5411 24.1112 16 28.5909 16C31.4033 16 33.982 17.0018 35.9894 18.6684Z" fill="#555555"/>
</g>
<defs>
<filter id="filter0_dd_1_818" x="0" y="0" width="58" height="58" filterUnits="userSpaceOnUse" color-interpolation-filters="sRGB">
<feFlood flood-opacity="0" result="BackgroundImageFix"/>
<feColorMatrix in="SourceAlpha" type="matrix" values="0 0 0 0 0 0 0 0 0 0 0 0 0 0 0 0 0 0 127 0" result="hardAlpha"/>
<feOffset dy="1"/>
<feGaussianBlur stdDeviation="1.5"/>
<feColorMatrix type="matrix" values="0 0 0 0 0.196078 0 0 0 0 0.196078 0 0 0 0 0.278431 0 0 0 0.1 0"/>
<feBlend mode="normal" in2="BackgroundImageFix" result="effect1_dropShadow_1_818"/>
<feColorMatrix in="SourceAlpha" type="matrix" values="0 0 0 0 0 0 0 0 0 0 0 0 0 0 0 0 0 0 127 0" result="hardAlpha"/>
<feOffset/>
<feGaussianBlur stdDeviation="0.5"/>
<feColorMatrix type="matrix" values="0 0 0 0 0.0470588 0 0 0 0 0.101961 0 0 0 0 0.294118 0 0 0 0.2 0"/>
<feBlend mode="normal" in2="effect1_dropShadow_1_818" result="effect2_dropShadow_1_818"/>
<feBlend mode="normal" in="SourceGraphic" in2="effect2_dropShadow_1_818" result="shape"/>
</filter>
<clipPath id="clip0_1_818">
<rect width="23.1818" height="23.1818" fill="white" transform="translate(17 16)"/>
</clipPath>
</defs>
</svg>
